<svg width="125" height="121" viewBox="0 0 125 121" xmlns="http://www.w3.org/2000/svg" xmlns:xlink="http://www.w3.org/1999/xlink"><defs><path d="M0 249.033c0 27.406 17.772 50.655 42.422 58.857 3.103.571 4.234-1.344 4.234-2.99 0-1.47-.053-5.372-.084-10.548-17.254 3.748-20.894-8.316-20.894-8.316-2.822-7.167-6.89-9.075-6.89-9.075-5.631-3.846.427-3.77.427-3.77 6.227.438 9.501 6.394 9.501 6.394 5.534 9.478 14.52 6.74 18.054 5.152.564-4.006 2.167-6.74 3.938-8.29-13.774-1.565-28.256-6.889-28.256-30.658 0-6.771 2.418-12.312 6.386-16.645-.64-1.57-2.768-7.88.61-16.417 0 0 5.205-1.668 17.056 6.36 4.946-1.379 10.255-2.064 15.529-2.091 5.27.027 10.575.712 15.53 2.09 11.842-8.027 17.04-6.359 17.04-6.359 3.386 8.538 1.257 14.848.62 16.417 3.976 4.333 6.376 9.874 6.376 16.645 0 23.83-14.505 29.074-28.32 30.609 2.223 1.915 4.207 5.7 4.207 11.488 0 8.29-.076 14.981-.076 17.015 0 1.66 1.12 3.59 4.265 2.985 24.63-8.221 42.387-31.454 42.387-58.853 0-34.261-27.776-62.033-62.037-62.033C27.775 187 0 214.772 0 249.033z" id="a"/><filter id="b"><feOffset dy="1"/><feGaussianBlur stdDeviation="2" result="offset-blur"/><feComposite operator="out" in="SourceGraphic" in2="offset-blur" result="inverse"/><feFlood flood-color="#bababa" flood-opacity=".75" result="color"/><feComposite operator="in" in="color" in2="inverse" result="shadow"/><feComposite in="shadow" in2="SourceGraphic"/></filter></defs><g fill="#E9E9E9" transform="translate(0 -187)" fill-rule="evenodd"><use xlink:href="#a"/><use filter="url(#b)" xlink:href="#a"/></g></svg>