<svg xmlns="http://www.w3.org/2000/svg" width="512" height="512" viewBox="0 0 512 512"><path fill="#eeeeee" d="M96 255.006c0-6.09.352-12.098 1.015-18.011l-92.49-30.052A257.296 257.296 0 0 0 0 255.006c0 73.615 31.083 139.96 80.827 186.662l57.142-78.647C111.907 334.557 96 296.641 96 255.006zm320 0c0 41.634-15.906 79.55-41.969 108.014l57.143 78.647C480.916 394.967 512 328.621 512 255.006a257.38 257.38 0 0 0-4.523-48.063l-92.49 30.052A162.074 162.074 0 0 1 416 255.006zM288 98.21c45.967 9.331 84.771 38.371 107.225 77.913l92.49-30.051C451.115 68.362 376.594 12.042 288 .994V98.21zm-171.225 77.913C139.228 136.581 178.033 107.541 224 98.21V.994C135.406 12.042 60.885 68.362 24.287 146.071l92.488 30.052zM322.277 400.67c-20.195 9.205-42.635 14.336-66.277 14.336-23.642 0-46.083-5.131-66.277-14.334l-57.146 78.654c36.603 20.184 78.668 31.68 123.423 31.68 44.756 0 86.82-11.496 123.424-31.68l-57.147-78.656z"/></svg>